<mxfile host="app.diagrams.net" modified="2023-09-13T15:35:22.691Z" agent="Mozilla/5.0 (Windows NT 10.0; Win64; x64) AppleWebKit/537.36 (KHTML, like Gecko) Chrome/116.0.0.0 Safari/537.36" version="21.7.5" etag="UKxDD7GlpLUovPYWEqj4" type="github">
  <diagram name="Page-1" id="5KQoc1CQTlTUYsfaOmNt">
    <mxGraphModel>
      <root>
        <mxCell id="0" />
        <mxCell id="1" parent="0" />
      </root>
    </mxGraphModel>
  </diagram>
</mxfile>
